Coordinates
version=1
nRows=27
nColumns=38
inDegrees=no

Units are S.I. units (second, meters, Newtons, ...)
If the header above contains a line with 'inDegrees', this indicates whether rotational values are in degrees (yes) or radians (no).

endheader
time	pelvis_tilt	pelvis_list	pelvis_rotation	pelvis_tx	pelvis_ty	pelvis_tz	hip_flexion_r	hip_adduction_r	hip_rotation_r	knee_angle_r	ankle_angle_r	subtalar_angle_r	mtp_angle_r	hip_flexion_l	hip_adduction_l	hip_rotation_l	knee_angle_l	ankle_angle_l	subtalar_angle_l	mtp_angle_l	lumbar_extension	lumbar_bending	lumbar_rotation	arm_flex_r	arm_add_r	arm_rot_r	elbow_flex_r	pro_sup_r	wrist_flex_r	wrist_dev_r	arm_flex_l	arm_add_l	arm_rot_l	elbow_flex_l	pro_sup_l	wrist_flex_l	wrist_dev_l
0	-0.865151	1.54869	-0.459193	0.467532	1.85222	1.07376	0.0111215	0.076434	-0.144457	0.136025	-0.283504	0	0	0.151282	-0.206706	-0.408825	0.611833	-0.251527	0	0	-0.457339	-0.00193515	-0.124599	0.0690109	-0.644369	0.587197	1.37498	0.846263	0	0	-0.285642	-0.538863	0.0821959	1.5826	1.4864	0	0
0.01	-0.71543	1.54702	-0.60948	0.468089	1.8511	1.07415	0.00553074	0.0756324	-0.147273	0.13554	-0.283269	0	0	0.144321	-0.206462	-0.412854	0.610069	-0.251592	0	0	-0.457193	0.000758366	-0.123991	0.0740999	-0.649383	0.589068	1.3805	0.837791	0	0	-0.276831	-0.541968	0.0886129	1.57631	1.48064	0	0
0.02	-0.656849	1.54625	-0.668052	0.468443	1.85037	1.07435	0.00334815	0.0750583	-0.1484	0.136457	-0.282556	0	0	0.140988	-0.205871	-0.413109	0.608698	-0.251391	0	0	-0.456158	0.00254889	-0.12443	0.080733	-0.652219	0.591445	1.38447	0.830667	0	0	-0.268347	-0.547068	0.0941286	1.57397	1.4698	0	0
0.03	-0.661295	1.54683	-0.663153	0.46869	1.84997	1.07441	0.00428361	0.0743187	-0.148266	0.138597	-0.282104	0	0	0.140569	-0.204948	-0.411813	0.607164	-0.251697	0	0	-0.454699	0.00313774	-0.126274	0.0890798	-0.652721	0.594197	1.38648	0.827818	0	0	-0.260746	-0.553185	0.0972652	1.57521	1.46106	0	0
0.04	-0.655414	1.54756	-0.668999	0.469002	1.84941	1.07448	0.00503743	0.0730902	-0.149028	0.140913	-0.281513	0	0	0.139048	-0.203915	-0.412351	0.60456	-0.252343	0	0	-0.453138	0.00331876	-0.128304	0.0987159	-0.653398	0.598658	1.38739	0.821844	0	0	-0.252502	-0.561231	0.103176	1.57675	1.44795	0	0
0.05	-0.641317	1.54733	-0.683424	0.469177	1.84893	1.07451	0.00495516	0.0728735	-0.148758	0.142827	-0.281042	0	0	0.138089	-0.203092	-0.40917	0.604352	-0.250832	0	0	-0.452118	0.00498771	-0.129064	0.109798	-0.656171	0.604403	1.38925	0.812017	0	0	-0.241586	-0.570273	0.112326	1.57679	1.43345	0	0
0.06	-0.621319	1.54729	-0.70383	0.469376	1.84846	1.07456	0.00438224	0.0726235	-0.147237	0.143547	-0.28109	0	0	0.137014	-0.202138	-0.40726	0.603925	-0.249994	0	0	-0.450914	0.00603159	-0.129347	0.121522	-0.6585	0.6104	1.38982	0.803458	0	0	-0.228849	-0.580047	0.123476	1.57608	1.41875	0	0
0.07	-0.58083	1.54718	-0.744664	0.469609	1.84797	1.07469	0.00303246	0.071996	-0.146066	0.143607	-0.281253	0	0	0.135132	-0.201143	-0.407032	0.602964	-0.249986	0	0	-0.450092	0.00705136	-0.129603	0.134366	-0.661135	0.617353	1.39006	0.793714	0	0	-0.215522	-0.589077	0.134225	1.57493	1.40473	0	0
0.08	-0.532322	1.5466	-0.793709	0.46982	1.84752	1.07488	0.00156329	0.0713204	-0.145851	0.144366	-0.281118	0	0	0.132539	-0.200403	-0.407341	0.601696	-0.250116	0	0	-0.449721	0.00892122	-0.129335	0.148302	-0.664944	0.625422	1.39109	0.781751	0	0	-0.200709	-0.598232	0.146343	1.57302	1.39007	0	0
0.09	-0.4865	1.54617	-0.840263	0.469998	1.84714	1.07504	0.000964698	0.0704076	-0.145699	0.146378	-0.27967	0	0	0.130181	-0.199434	-0.407583	0.600202	-0.251191	0	0	-0.44926	0.0106957	-0.129018	0.163582	-0.668984	0.634914	1.39217	0.766447	0	0	-0.18433	-0.608261	0.160084	1.57079	1.37386	0	0
0.1	-0.0501644	1.53112	-1.339	0.46398	1.85386	1.08036	0.0105458	0.0624163	-0.0440289	0.192643	-0.270829	0	0	0.0423238	-0.122492	-0.288084	0.418443	-0.260113	0	0	-0.498002	-0.0107543	-0.0808371	0.219063	-0.689017	0.656895	1.40638	0.742587	0	0	-0.145549	-0.61037	0.165041	1.57796	1.35884	0	0
0.11	-0.475466	1.54727	-0.853467	0.470168	1.8465	1.07505	0.00387154	0.0688057	-0.143898	0.152453	-0.278719	0	0	0.128924	-0.197979	-0.408365	0.59859	-0.250192	0	0	-0.444632	0.013444	-0.130401	0.201422	-0.675601	0.663411	1.39093	0.735401	0	0	-0.15127	-0.630463	0.188309	1.56581	1.33649	0	0
0.12	-0.510464	1.54834	-0.818232	0.4705	1.84603	1.07494	0.00553887	0.0682879	-0.144839	0.154194	-0.277949	0	0	0.129754	-0.197234	-0.407227	0.598079	-0.249481	0	0	-0.440097	0.0157224	-0.13212	0.221965	-0.67889	0.680529	1.38881	0.717436	0	0	-0.133443	-0.641582	0.204462	1.56138	1.3164	0	0
0.13	-0.550529	1.54945	-0.778152	0.470837	1.84553	1.07483	0.00701471	0.0677321	-0.145436	0.155478	-0.277272	0	0	0.130373	-0.196492	-0.406573	0.597385	-0.248935	0	0	-0.435578	0.0180131	-0.133981	0.244596	-0.682358	0.699775	1.38599	0.697918	0	0	-0.115495	-0.651782	0.219865	1.55642	1.29663	0	0
0.14	-0.541508	1.55016	-0.786611	0.471278	1.84529	1.07486	0.00757469	0.066405	-0.14596	0.156892	-0.276525	0	0	0.130144	-0.194799	-0.404999	0.596211	-0.24908	0	0	-0.432569	0.0203433	-0.136621	0.270018	-0.686077	0.721107	1.3826	0.677808	0	0	-0.0961815	-0.661663	0.235287	1.55108	1.27629	0	0
0.15	-0.555359	1.55128	-0.772778	0.471661	1.84508	1.07486	0.00884576	0.065155	-0.145195	0.158155	-0.275807	0	0	0.130441	-0.193428	-0.40468	0.595202	-0.249472	0	0	-0.429188	0.0223765	-0.139541	0.29776	-0.688972	0.744484	1.3778	0.65828	0	0	-0.0772948	-0.671083	0.249459	1.54593	1.25671	0	0
0.16	-0.594746	1.55239	-0.733779	0.472003	1.84485	1.07484	0.0103441	0.064306	-0.144652	0.158832	-0.27575	0	0	0.130661	-0.1925	-0.404704	0.593717	-0.249804	0	0	-0.425109	0.0245964	-0.141839	0.326272	-0.691678	0.768651	1.37224	0.638751	0	0	-0.0570262	-0.680313	0.264916	1.53991	1.23685	0	0
0.17	-0.627696	1.55313	-0.701288	0.472339	1.84463	1.07484	0.0116237	0.0635243	-0.144945	0.159705	-0.275924	0	0	0.130334	-0.191709	-0.40486	0.592117	-0.24965	0	0	-0.421063	0.0272941	-0.14363	0.355192	-0.694615	0.793136	1.36663	0.618734	0	0	-0.0354187	-0.689288	0.281722	1.53282	1.21532	0	0
0.18	-0.655753	1.55394	-0.673948	0.472665	1.84438	1.07483	0.0131183	0.0625433	-0.14523	0.161372	-0.276014	0	0	0.129712	-0.191035	-0.40611	0.590596	-0.249229	0	0	-0.416802	0.0298246	-0.14496	0.384008	-0.696673	0.817162	1.36019	0.598024	0	0	-0.0124178	-0.69802	0.300207	1.5247	1.19363	0	0
0.19	-0.702976	1.55498	-0.627939	0.472945	1.84405	1.07476	0.0150984	0.0616349	-0.145038	0.163322	-0.276633	0	0	0.129245	-0.190559	-0.408379	0.589205	-0.249097	0	0	-0.412169	0.0321401	-0.146015	0.41287	-0.69755	0.840962	1.35274	0.578629	0	0	0.0104775	-0.705843	0.318297	1.51597	1.17231	0	0
0.2	-0.757579	1.55595	-0.574476	0.473227	1.84373	1.07467	0.0171096	0.0607651	-0.14527	0.165292	-0.277769	0	0	0.129121	-0.190255	-0.411163	0.588382	-0.2494	0	0	-0.407541	0.03463	-0.147058	0.442083	-0.697801	0.865181	1.34487	0.561969	0	0	0.0335606	-0.712734	0.33592	1.5065	1.15099	0	0
0.21	-0.817251	1.55674	-0.515008	0.473618	1.84354	1.07461	0.0188692	0.0599217	-0.146321	0.166758	-0.278799	0	0	0.129473	-0.1904	-0.414764	0.588267	-0.250421	0	0	-0.403089	0.0376889	-0.148733	0.471594	-0.697429	0.889335	1.33653	0.546121	0	0	0.0572902	-0.718777	0.353388	1.49632	1.13042	0	0
0.22	-0.846309	1.55732	-0.48556	0.474079	1.84343	1.07462	0.0198271	0.0589999	-0.147479	0.167595	-0.279784	0	0	0.129068	-0.190742	-0.419664	0.58766	-0.252141	0	0	-0.399062	0.040487	-0.15016	0.500666	-0.696465	0.912777	1.32707	0.529976	0	0	0.0836229	-0.724666	0.373664	1.48501	1.10914	0	0
0.23	-0.755962	1.5572	-0.576354	0.474454	1.84318	1.07484	0.0185063	0.0579086	-0.147994	0.167934	-0.280792	0	0	0.124657	-0.188797	-0.419527	0.581932	-0.252764	0	0	-0.396803	0.042858	-0.151356	0.531364	-0.694354	0.938085	1.31601	0.513136	0	0	0.110044	-0.730019	0.393888	1.47314	1.0877	0	0
0.24	-0.678817	1.55681	-0.654318	0.474764	1.84294	1.07501	0.0178214	0.0568326	-0.148538	0.169808	-0.281294	0	0	0.121301	-0.187171	-0.418561	0.57842	-0.252679	0	0	-0.395143	0.0457169	-0.151961	0.561332	-0.691796	0.962019	1.30496	0.501381	0	0	0.136902	-0.734466	0.41375	1.46076	1.06944	0	0
0.25	0.623944	1.56249	-1.95405	0.474843	1.84382	1.07732	0.0218265	0.0403561	-0.150313	0.175078	-0.282916	0	0	0.0672064	-0.100633	-0.235069	0.403272	-0.264008	0	0	-0.398232	0.0332255	-0.159302	0.584842	-0.679771	0.972267	1.28655	0.491378	0	0	0.171314	-0.742187	0.436979	1.44551	1.05077	0	0
0.26	-0.578061	1.55643	-0.756122	0.475546	1.84259	1.07522	0.0174327	0.0554144	-0.147282	0.172573	-0.282036	0	0	0.117013	-0.185192	-0.420546	0.575097	-0.252286	0	0	-0.389817	0.052348	-0.155309	0.627359	-0.683287	1.02026	1.27675	0.458673	0	0	0.189379	-0.741612	0.45386	1.43318	1.02462	0	0
